<svg style="fill: #FFFFFF;" id="a8a0f51e-21b4-4bfa-aa91-adc13dd5d7f4" data-name="Layer 1" xmlns="http://www.w3.org/2000/svg" viewBox="0 0 44.67 44.67"><g id="f08c714b-a9c1-4c46-8252-c9cd524df44f" data-name="Grupo 745"><g id="a151fe01-4c06-4daf-90a0-7dac4670f60b" data-name="Grupo 743"><path id="ac5810e1-cf6c-462a-abfe-9d3d3b163f3f" data-name="Trazado 210" d="M41.08,29.32a25.35,25.35,0,0,1-8-1.27,3.63,3.63,0,0,0-3.54.75l-5,3.79A27.71,27.71,0,0,1,12.08,20.11l3.68-4.89a3.62,3.62,0,0,0,.89-3.66,25.44,25.44,0,0,1-1.28-8A3.58,3.58,0,0,0,11.79,0H3.59A3.58,3.58,0,0,0,0,3.58,41.14,41.14,0,0,0,41.08,44.67a3.59,3.59,0,0,0,3.59-3.59V32.9A3.59,3.59,0,0,0,41.08,29.32Z"/></g></g></svg>
