<svg style="fill: #FFFFFF;" id="fb57cbba-2f39-44da-acb9-f85b04c5eb9a" data-name="Layer 1" xmlns="http://www.w3.org/2000/svg" viewBox="0 0 42.9 29.49"><g id="e93dfa5a-fefe-405a-8c96-b26f7d45e06c" data-name="Grupo 758"><g id="fcf268bc-7d51-4551-b910-da440f7264df" data-name="Grupo 751"><g id="b58122bb-fad3-4faa-8e9e-1771fdfda782" data-name="Grupo 750"><path id="aa5e5917-7127-4ba7-a5b6-29fe06e4f335" data-name="Trazado 212" d="M28.44,15,42.9,24.11V5.44Z"/></g></g><g id="a2b6f8fa-7f89-4aff-bdf8-1ee3de2ec8d9" data-name="Grupo 753"><g id="a6092568-b252-46c0-b790-1803c5b0b53e" data-name="Grupo 752"><path id="eda56a33-3047-4ed2-83e1-f9614c87ddbe" data-name="Trazado 213" d="M0,5.44V24.12L14.46,15Z"/></g></g><g id="f62b8905-92bc-4885-b416-46518ef62e3c" data-name="Grupo 755"><g id="a6c90398-e2cd-49c3-971a-b1044c3cb3c6" data-name="Grupo 754"><path id="f0eca1ac-3634-418c-914f-1d947fef22ba" data-name="Trazado 214" d="M40.22,0H2.68A2.65,2.65,0,0,0,.08,2.28L21.45,16.36,42.82,2.28A2.65,2.65,0,0,0,40.22,0Z"/></g></g><g id="b31bac18-ace4-463b-96bc-8bc21847e408" data-name="Grupo 757"><g id="bca89eb2-4f0a-4291-a3d8-d4b1a011992b" data-name="Grupo 756"><path id="e1bdadb3-1903-4865-b08a-6e40ac114429" data-name="Trazado 215" d="M26,16.59l-3.79,2.5a1.37,1.37,0,0,1-1.48,0l-3.79-2.5L.09,27.23a2.63,2.63,0,0,0,2.6,2.26H40.22a2.64,2.64,0,0,0,2.6-2.26Z"/></g></g></g></svg>
