<svg style="fill: #06283D;" id="e31fd1f9-3869-4a2a-ba2b-8c6e5db1a644" data-name="Layer 1" xmlns="http://www.w3.org/2000/svg" viewBox="0 0 186.83 162.61"><g id="b2923c8a-6bb2-412a-970f-c3f2bea2239e" data-name="Grupo 1008"><rect id="a9e41a4e-8bec-4e9d-8b9c-6cc87bc7a6ca" data-name="Rectángulo 236" x="58.81" y="104.24" width="6.92" height="6.92"/><rect id="a2033600-c22b-4f40-b8b3-992c9a511db5" data-name="Rectángulo 237" x="121.09" y="104.24" width="6.92" height="6.92"/><path id="a413d884-b23a-4caa-b148-1a4c83718eab" data-name="Trazado 478" d="M90,80v6.13A11.23,11.23,0,0,0,79.57,97.31V99.9a11.27,11.27,0,0,0,11.25,11.25H96a4.32,4.32,0,0,1,4.32,4.33v2.6A4.33,4.33,0,0,1,96,122.4H90.82a4.33,4.33,0,0,1-4.33-4.32H79.57A11.22,11.22,0,0,0,90,129.23v6.14h6.92v-6.14a11.23,11.23,0,0,0,10.38-11.16v-2.59A11.24,11.24,0,0,0,96,104.24H90.82a4.34,4.34,0,0,1-4.33-4.33v-2.6A4.33,4.33,0,0,1,90.82,93H96a4.33,4.33,0,0,1,4.32,4.32h6.92A11.21,11.21,0,0,0,96.87,86.15V80Z"/><path id="acd4d956-c8c3-4e7b-8b1f-c1e83404e2b5" data-name="Trazado 479" d="M.4,119.68a3.45,3.45,0,0,0,3.06,1.85h.06l9-.15c2.7,9.82,14.07,41.23,49.53,41.23,1.5,0,3-.05,4.62-.17a3.46,3.46,0,0,0,.22-6.87,43.79,43.79,0,0,1-26.64-16.74H56.35a48.17,48.17,0,0,0,51.46,15.07,10.28,10.28,0,0,0,6.36,2.23H173a10.38,10.38,0,0,0,10.38-10.38h0v-3.46A10.38,10.38,0,0,0,173,131.91h-4.1a10.23,10.23,0,0,0,.63-3.46V125a10.31,10.31,0,0,0-2.7-6.92,10.31,10.31,0,0,0,2.7-6.92v-3.46a10.31,10.31,0,0,0-2.7-6.92,10.31,10.31,0,0,0,2.7-6.92V90.4A10.37,10.37,0,0,0,159.15,80h-26A48.43,48.43,0,0,0,96.85,59.43c0-.06,0-.11,0-.17V55.8a10.31,10.31,0,0,0-2.39-6.55L117.79,26,143.05,48a3.45,3.45,0,0,0,4.84-.27l32-35v8h6.92V3.46A3.46,3.46,0,0,0,183.37,0h-17.3V6.92h9.83L145,40.58l-25.13-22a3.48,3.48,0,0,0-4.73.16L96.74,37.2a10.32,10.32,0,0,0-2.57-5.62,10.31,10.31,0,0,0,2.7-6.92V21.2A10.37,10.37,0,0,0,86.5,10.82H27.67A10.37,10.37,0,0,0,17.3,21.2v3.46A10.31,10.31,0,0,0,20,31.58a10.31,10.31,0,0,0-2.7,6.92V42A10.31,10.31,0,0,0,20,48.88a10.31,10.31,0,0,0-2.7,6.92v3.46A10.31,10.31,0,0,0,20,66.18a10.31,10.31,0,0,0-2.7,6.92v3.46A10.31,10.31,0,0,0,20,83.48a10.31,10.31,0,0,0-2.7,6.92v2.35L.64,116.06A3.45,3.45,0,0,0,.4,119.68Zm35.54,12.23A52.63,52.63,0,0,1,32,121.53H47a47.33,47.33,0,0,0,4.5,10.38ZM24.22,90.4a3.45,3.45,0,0,1,3.46-3.46h22a48.13,48.13,0,0,0-3.59,10.38H28.27l-4.05-4.74Zm0-13.84V73.1a3.45,3.45,0,0,1,3.46-3.46H63.55A48.9,48.9,0,0,0,53.72,80h-26a3.45,3.45,0,0,1-3.45-3.46Zm0-17.3V55.8a3.45,3.45,0,0,1,3.46-3.46H86.49A3.46,3.46,0,0,1,90,55.8v3.46c0,.06,0,.12,0,.18a47.8,47.8,0,0,0-14.39,3.28H27.67a3.45,3.45,0,0,1-3.45-3.46Zm0-17.3V38.5A3.45,3.45,0,0,1,27.68,35H86.49A3.46,3.46,0,0,1,90,38.5V42a3.46,3.46,0,0,1-3.46,3.46H27.67A3.45,3.45,0,0,1,24.22,42Zm20.93,62.28c-.08,1.15-.18,2.29-.18,3.46a48.67,48.67,0,0,0,.56,6.92H43.11l-8.9-10.38Zm131.3,38.06v3.46a3.46,3.46,0,0,1-3.46,3.46H114.17a3.46,3.46,0,0,1-3.46-3.46V142.3a3.46,3.46,0,0,1,3.46-3.46H173a3.45,3.45,0,0,1,3.46,3.45Zm-41.11-10.38a47.54,47.54,0,0,0,4.5-10.38h19.31a3.46,3.46,0,0,1,3.46,3.46v3.46a3.46,3.46,0,0,1-3.46,3.46Zm6.34-27.68h17.47a3.46,3.46,0,0,1,3.46,3.46v3.46a3.46,3.46,0,0,1-3.46,3.46H141.33a48.62,48.62,0,0,0,.52-6.92c0-1.17-.09-2.32-.18-3.46Zm17.47-17.3a3.46,3.46,0,0,1,3.46,3.46v3.46a3.46,3.46,0,0,1-3.46,3.46H140.7a48.13,48.13,0,0,0-3.59-10.38ZM134.93,107.7a41,41,0,0,1-7.83,24.21H114.17a10.38,10.38,0,0,0-10.38,10.38h0v3.47a10.31,10.31,0,0,0,.21,2.07,41.48,41.48,0,1,1,30.93-40.13ZM24.22,21.2a3.45,3.45,0,0,1,3.46-3.46H86.49A3.46,3.46,0,0,1,90,21.2v3.46a3.46,3.46,0,0,1-3.46,3.46H27.67a3.46,3.46,0,0,1-3.46-3.46ZM21,99.46l13,15.15H27.67a3.48,3.48,0,0,0-3.39,4.12,54.3,54.3,0,0,0,18.58,32.69c-19.53-9.74-24-32.86-24.25-34.16a3.48,3.48,0,0,0-3.4-2.85h-.06l-4.88.09Z"/></g></svg>
