<svg id="f25311c2-5b41-4c3f-b9fb-2b0cd01bb8c4" data-name="Layer 1" xmlns="http://www.w3.org/2000/svg" viewBox="0 0 143.71 173.88"><g id="b73b4d13-4597-4afc-b900-c8b3ca9311e9" data-name="Grupo 1006"><g id="e0e0adcb-83dc-49a3-8062-cd967995c2cd" data-name="Grupo 1005"><path id="ec68ed9a-3d4c-4f12-90a9-b3535aa2ad1d" data-name="Trazado 473" d="M134,0H35.29A9.75,9.75,0,0,0,25.6,9.69V25.6H9.69A9.75,9.75,0,0,0,0,35.29v128.9a9.74,9.74,0,0,0,9.69,9.69h98.74a9.76,9.76,0,0,0,9.69-9.69v-15.9H134a9.76,9.76,0,0,0,9.69-9.7V9.69A9.87,9.87,0,0,0,134,0ZM110.25,164a1.63,1.63,0,0,1-1.63,1.64H9.87A1.79,1.79,0,0,1,8.05,164V35.11a1.68,1.68,0,0,1,1.72-1.66h16V138.59a9.75,9.75,0,0,0,9.69,9.69h74.78Zm25.42-25.42a1.83,1.83,0,0,1-1.83,1.83H35.29a1.83,1.83,0,0,1-1.83-1.83V9.69a1.84,1.84,0,0,1,1.83-1.83H134a1.84,1.84,0,0,1,1.83,1.83v128.9Z"/><path id="a7ff43a6-4e11-41a9-8be9-ea30df175083" data-name="Trazado 474" d="M114.1,92.88H55.22a4,4,0,0,0,0,8.05h58.69a4.06,4.06,0,0,0,4-4,3.89,3.89,0,0,0-3.78-4Z"/><path id="f6462509-18ed-408f-9688-343342322524" data-name="Trazado 475" d="M114.1,116.47H55.22a4,4,0,0,0,0,8h58.69a4,4,0,0,0,.19-8Z"/><path id="eeeb3c20-d321-4f63-82bd-17c97d8720df" data-name="Trazado 476" d="M114.1,69.11H55.22a4,4,0,0,0,0,8h58.69a4,4,0,0,0,.19-8Z"/><path id="adb12fc1-9ffb-4be6-8013-3075597fa015" data-name="Trazado 477" d="M70.39,54.12a4.29,4.29,0,0,0,2.93,1.28,3.59,3.59,0,0,0,2.92-1.28L100,30.35a3.87,3.87,0,0,0,.19-5.47l-.19-.2a4.22,4.22,0,0,0-5.67,0L70.58,48.45A3.73,3.73,0,0,0,70,53.7,3.88,3.88,0,0,0,70.39,54.12Z"/><circle id="a141089e-8f09-42f6-9ebd-93a519017d6f" data-name="Elipse 33" cx="73.82" cy="28.54" r="6.5"/><circle id="ad86368e-e709-4a92-be3b-0683e5c9d80c" data-name="Elipse 34" cx="96.17" cy="50.46" r="6.4"/></g></g></svg>