<svg style="fill:#FFFFFF;" id="e1a19349-6941-461f-99fc-a0222736bcff" data-name="Layer 1" xmlns="http://www.w3.org/2000/svg" viewBox="0 0 1713.34 749.86"><g id="ab2e9d1f-b113-4aaa-8cd5-fea61fdb73b8" data-name="Grupo 820"><path id="b12a5611-6009-42bf-bc18-070d5ae64622" data-name="Trazado 330" d="M1676.39,570.69a164.31,164.31,0,0,1-31.53-3c-15.77-3.75-37.54-14.26-66.07-81.84-48-114.11-168.18-420.43-186.2-461.72-7.47-17.27-12-24.06-18.77-24.06-7.46,0-12,8.29-21,30l-188.44,471.5c-12.93,32.35-25.32,55.72-50.55,64.48-15.21-5.23-35.22-20.21-60.57-80.25C1005.19,371.7,885.07,65.38,867,24.1,859.54,6.83,855,0,848.28,0c-7.47,0-12,8.3-21,30L638.81,501.55c-12.93,32.36-25.32,55.73-50.55,64.49-15.21-5.23-35.22-20.21-60.57-80.25C479.64,371.67,359.52,65.35,341.5,24.06,334,6.8,329.48,0,322.73,0c-7.47,0-12,8.3-21,30L113.21,501.62c-15,37.53-29.28,63.06-63.81,67.57a225.68,225.68,0,0,1-23.23,1.5c-6,0-9,1.5-9,6,0,6,4.51,7.51,14.27,7.51,39,0,80.33-2.25,88.59-2.25,23.24,0,55.59,2.25,79.59,2.25,8.3,0,12.76-1.5,12.76-7.51,0-4.51-2.26-6-11.26-6H189.79c-23.27,0-30-9.76-30-23.27A145.51,145.51,0,0,1,171,501.62l40.54-107.37c1.5-4.5,3-6,6.75-6H385.73a7.22,7.22,0,0,1,7.51,5.25L453.3,552.66a12.24,12.24,0,0,1-5.08,16.54,13,13,0,0,1-1.67.73c-7.51.75-10.52,2.26-10.52,6.75,0,5.26,9,5.26,22.53,6,34.66.83,67.55,1.24,94.37,1.39,1.22.07,2.54.11,4,.11,3.36,0,6.73,0,10.11-.05,13.46.05,24.85.05,33.43.05a137.24,137.24,0,0,0,28.63-1.72c8-.31,13.83-.53,16.42-.53,23.27,0,55.59,2.25,79.59,2.25,8.29,0,12.76-1.5,12.76-7.51,0-4.5-2.25-6-11.26-6H715.33c-23.23,0-30-9.75-30-23.27a145.85,145.85,0,0,1,11.26-45.8L737.1,394.24c1.51-4.51,3-6,6.76-6H911.28a7.23,7.23,0,0,1,7.47,5.25l60.06,159.17a12.23,12.23,0,0,1-5.07,16.53,12.54,12.54,0,0,1-1.68.73c-7.47.76-10.51,2.26-10.51,6.76,0,5.26,9,5.26,22.52,6,34.66.83,67.55,1.24,94.38,1.39,1.22.07,2.54.11,4,.11,3.36,0,6.73,0,10.11,0,13.46,0,24.84,0,33.42,0a136.65,136.65,0,0,0,28.64-1.72c8-.31,13.83-.52,16.42-.52,23.27,0,55.59,2.24,79.58,2.24,8.3,0,12.76-1.5,12.76-7.51,0-4.5-2.25-6-11.26-6h-11.26c-23.23,0-30-9.76-30-23.28a145.64,145.64,0,0,1,11.26-45.8l40.53-107.36c1.51-4.51,3-6,6.76-6h167.47a7.24,7.24,0,0,1,7.51,5.25l60.06,159.17a12.23,12.23,0,0,1-5.08,16.53,11.74,11.74,0,0,1-1.67.73c-7.47.76-10.52,2.26-10.52,6.76,0,5.26,9,5.26,22.53,6,60.06,1.5,114.87,1.5,141.88,1.5,27.78,0,34.53-1.5,34.53-7.51C1686.11,571.45,1682.36,570.69,1676.39,570.69Zm-1304.91-220H233.34c-3,0-3.75-2.25-3-5.25l69.08-184.69c.75-3,2.24-6.77,4.5-6.77s3,3.76,3.75,6.76L375.23,346.2C376,348.46,375.23,350.71,371.48,350.71Zm525.56,0H758.89c-3,0-3.76-2.25-3-5.25L825,160.77c.76-3,2.26-6.77,4.51-6.77s3,3.76,3.75,6.76L900.79,346.2c.75,2.26,0,4.51-3.76,4.51Zm525.55,0H1284.45c-3,0-3.75-2.25-3-5.25l69.08-184.69c.75-3,2.25-6.77,4.5-6.77s3,3.76,3.76,6.76l67.57,185.44c.74,2.26,0,4.51-3.76,4.51Z"/><g id="bd6d877b-8acd-46b7-845b-a07624edd335" data-name="Grupo 819"><path id="b29db04e-ef86-4509-97c1-220b00348ba0" data-name="Trazado 331" d="M84.44,696.08,67.17,748.9H54L42.41,713.13l-12,35.77h-13L0,696.08H12.68L24.6,733.2l12.45-37.12H48.36l12.08,37.43,12.29-37.43Z"/><path id="a9adf086-bf98-44ee-a309-9999b9b8a0f1" data-name="Trazado 332" d="M136.65,739.09v9.8H95.76V696.08h39.91v9.8H107.9v11.48h24.53v9.51H107.9v12.22Z"/><path id="bb487b73-86c3-4e6c-a543-699e37045cfb" data-name="Trazado 333" d="M185.7,737.59H161.21l-4.68,11.31H144l23.53-52.82h12.08l23.62,52.82H190.41Zm-3.85-9.29-8.38-20.22-8.37,20.23Z"/><path id="a4ca1fc6-13e1-4640-9603-a6f434ae8dbb" data-name="Trazado 334" d="M213.24,696.08h12.23V739H252v9.95H213.24Z"/><path id="ad348123-f6d8-4b4b-8455-ce47fa757067" data-name="Trazado 335" d="M269.38,706h-16.9v-10h46v10h-16.9V748.9H269.39Z"/><path id="e6544d8d-6d5d-4f20-b5c5-2b99727e4beb" data-name="Trazado 336" d="M358.05,696.08V748.9H345.82V727.25h-24V748.9H309.62V696.08h12.22v20.83h24V696.08Z"/><path id="b0bde5e0-95cc-4d08-b2c3-b6ca5705a09b" data-name="Trazado 337" d="M552.57,748.9l-.07-31.69L537,743.32h-5.55l-15.47-25.43v31H504.47V696.08h10.12l19.77,32.83,19.47-32.83h10L564,748.9Z"/><path id="b467b93e-ed63-454f-80f7-443a1d6d253b" data-name="Trazado 338" d="M615.88,737.59H591.35l-4.68,11.31H574.14l23.55-52.82h12.07l23.62,52.82H620.56ZM612,728.3l-8.38-20.22-8.38,20.23Z"/><path id="ba6245f5-e307-46ee-a22e-888f208e1eb1" data-name="Trazado 339" d="M691.87,696.08V748.9h-10l-26.33-32.07V748.9H643.43V696.08h10.11l26.26,32.07V696.08Z"/><path id="b0b9c39f-6cfc-472f-8ec8-df61c23c7ca5" data-name="Trazado 340" d="M743.71,737.59H719.19l-4.68,11.31H702l23.54-52.82h12.07l23.62,52.82H748.38Zm-3.85-9.29-8.38-20.22-8.37,20.23Z"/><path id="ac9e2812-4cd5-4510-90a2-853e0f1b755f" data-name="Trazado 341" d="M806.19,721.66h11.17v21.43a32,32,0,0,1-10,5A38.93,38.93,0,0,1,796,749.8a31,31,0,0,1-14.8-3.51,26.1,26.1,0,0,1-10.29-9.73,28.47,28.47,0,0,1,0-28.21,25.93,25.93,0,0,1,10.37-9.74,31.61,31.61,0,0,1,14.93-3.51,33,33,0,0,1,12.61,2.34,25.16,25.16,0,0,1,9.51,6.79l-7.85,7.24a18.15,18.15,0,0,0-13.66-6,18.7,18.7,0,0,0-9,2.11,15.17,15.17,0,0,0-6.11,6,17.48,17.48,0,0,0-2.19,8.83,17.27,17.27,0,0,0,2.19,8.75,15.43,15.43,0,0,0,6.07,6,17.93,17.93,0,0,0,8.87,2.15,19.9,19.9,0,0,0,9.51-2.26Z"/><path id="ad720cfa-d262-451f-b2b4-9a46f5afe4b5" data-name="Trazado 342" d="M874.1,739.09v9.8H833.2V696.08h39.92v9.8H845.38v11.48H869.9v9.51H845.38v12.22Z"/><path id="f5858353-2612-440b-967e-b2cc996c174a" data-name="Trazado 343" d="M936.43,748.9l-.08-31.69-15.54,26.11H915.3l-15.47-25.43v31H888.36V696.08h10.11l19.77,32.83,19.47-32.83h10l.15,52.82Z"/><path id="b5aa8073-76f4-4acb-8285-5f32f403b6d9" data-name="Trazado 344" d="M1005.85,739.09v9.8H964.93V696.08h39.92v9.8H977.08v11.48h24.52v9.51H977.08v12.22Z"/><path id="b3dc3d50-732d-4d9c-a678-6812810b0453" data-name="Trazado 345" d="M1068.56,696.08V748.9h-10l-26.34-32.07V748.9h-12.07V696.08h10.12l26.26,32.07V696.08Z"/><path id="a4555c20-280b-4174-9b06-ca0de20f5c93" data-name="Trazado 346" d="M1096.56,706h-16.91v-10h46v10h-16.9V748.9h-12.22Z"/><path id="ac8e001d-b593-487b-97ea-b8873913ef98" data-name="Trazado 347" d="M1301,737.59h-24.52l-4.68,11.31h-12.53l23.54-52.82h12.07l23.62,52.82h-12.83Zm-3.85-9.29-8.37-20.22-8.38,20.23Z"/><path id="f195bd3b-9279-4420-aa77-6773d9196324" data-name="Trazado 348" d="M1328.51,696.08h24a33.88,33.88,0,0,1,15.21,3.32,24.61,24.61,0,0,1,10.27,9.25,28.15,28.15,0,0,1,0,27.76,24.52,24.52,0,0,1-10.27,9.24A33.75,33.75,0,0,1,1352.5,749h-24Zm23.39,42.78a17.73,17.73,0,0,0,12.63-4.41,17.51,17.51,0,0,0,0-23.92,17.73,17.73,0,0,0-12.63-4.42h-11.17v32.75Z"/><path id="b4a4c31f-b17e-4027-afda-cf0e7a495cda" data-name="Trazado 349" d="M1444.4,696.08l-22.86,52.82h-12.08l-22.79-52.82h13.21L1416,733.81l16.3-37.73Z"/><path id="e1aff70a-78f0-49ad-9bff-d7e7b445b963" data-name="Trazado 350" d="M1453.31,696.08h12.23V748.9h-12.23Z"/><path id="b4c18a64-07bd-47f2-9fe8-96b63613398f" data-name="Trazado 351" d="M1487.85,748.11a28.39,28.39,0,0,1-9.39-4.42l4.15-9.2a28.17,28.17,0,0,0,8.07,4A30.41,30.41,0,0,0,1500,740a15,15,0,0,0,7.7-1.55,4.7,4.7,0,0,0,2.49-4.15,4,4,0,0,0-1.47-3.13,11.27,11.27,0,0,0-3.78-2q-2.3-.75-6.22-1.66a84.73,84.73,0,0,1-9.89-2.87,16,16,0,0,1-6.64-4.6,12.43,12.43,0,0,1-2.75-8.46,14.65,14.65,0,0,1,2.49-8.29,16.68,16.68,0,0,1,7.5-5.93,30.66,30.66,0,0,1,12.27-2.19,40.76,40.76,0,0,1,9.89,1.21,29.26,29.26,0,0,1,8.44,3.47l-3.77,9.28a29.38,29.38,0,0,0-14.64-4.14,13.62,13.62,0,0,0-7.58,1.66,5.05,5.05,0,0,0-2.49,4.37,4.27,4.27,0,0,0,2.83,4,44.11,44.11,0,0,0,8.64,2.6,87.76,87.76,0,0,1,9.88,2.87,16.52,16.52,0,0,1,6.64,4.54,12.15,12.15,0,0,1,2.75,8.37,14.35,14.35,0,0,1-2.53,8.29,17,17,0,0,1-7.58,5.93,31,31,0,0,1-12.3,2.19A43.28,43.28,0,0,1,1487.85,748.11Z"/><path id="a0332849-4cee-41a4-b5fb-11ab0e6071aa" data-name="Trazado 352" d="M1546,746.26a26.29,26.29,0,0,1-10.34-9.78,28.12,28.12,0,0,1,0-28,26.36,26.36,0,0,1,10.34-9.78,32.75,32.75,0,0,1,29.62,0,26.78,26.78,0,0,1,10.34,9.78,27,27,0,0,1-10.34,37.77,32.75,32.75,0,0,1-29.62,0Zm23.28-9a15.45,15.45,0,0,0,5.92-6,18.9,18.9,0,0,0,0-17.51,15.51,15.51,0,0,0-5.92-6,17.68,17.68,0,0,0-16.9,0,15.38,15.38,0,0,0-5.92,6,18.9,18.9,0,0,0,0,17.51,15.31,15.31,0,0,0,5.92,6,17.68,17.68,0,0,0,16.9,0Z"/><path id="f69faf42-e0e4-4858-aacf-2cf14b5728b7" data-name="Trazado 353" d="M1637.13,748.9l-10.19-14.71H1615.7V748.9h-12.23V696.08h22.87a29.49,29.49,0,0,1,12.19,2.34,18.14,18.14,0,0,1,8,6.64,18.33,18.33,0,0,1,2.79,10.19,17.21,17.21,0,0,1-10.87,16.68l11.85,17Zm-3.1-40.48a12.84,12.84,0,0,0-8.38-2.37h-10v18.41h10a12.74,12.74,0,0,0,8.38-2.41,9.55,9.55,0,0,0,0-13.63Z"/><path id="a0f5ea25-d27e-4b1a-9fd3-d983ed7d5fdc" data-name="Trazado 354" d="M1668.7,748.11a28.21,28.21,0,0,1-9.39-4.42l4.15-9.2a27.92,27.92,0,0,0,8.07,4,30.36,30.36,0,0,0,9.36,1.51,15,15,0,0,0,7.69-1.55,4.66,4.66,0,0,0,2.49-4.15,3.93,3.93,0,0,0-1.47-3.13,11.32,11.32,0,0,0-3.77-2q-2.31-.75-6.23-1.66a84.57,84.57,0,0,1-9.88-2.87,16.1,16.1,0,0,1-6.64-4.6,12.43,12.43,0,0,1-2.75-8.46,14.73,14.73,0,0,1,2.49-8.29,16.65,16.65,0,0,1,7.51-5.93,30.58,30.58,0,0,1,12.26-2.19,40.62,40.62,0,0,1,9.88,1.21,29.49,29.49,0,0,1,8.46,3.47l-3.78,9.28a29.37,29.37,0,0,0-14.63-4.14,13.66,13.66,0,0,0-7.59,1.66,5.07,5.07,0,0,0-2.49,4.37,4.29,4.29,0,0,0,2.83,4,44.31,44.31,0,0,0,8.64,2.6,86.56,86.56,0,0,1,9.88,2.87,16.38,16.38,0,0,1,6.64,4.54,12.1,12.1,0,0,1,2.75,8.37,14.32,14.32,0,0,1-2.48,8.29,17,17,0,0,1-7.59,5.93,31,31,0,0,1-12.3,2.19A43.14,43.14,0,0,1,1668.7,748.11Z"/></g><path id="eec33659-85f5-46e1-957d-f9c88d99d684" data-name="Trazado 355" d="M463.14,718.42H440.8V696.08h-8.13v22.34H410.33v8.13h22.34v22.34h8.13V726.55h22.34Z"/><path id="a98068d4-792e-4933-8da7-7ea796f49315" data-name="Trazado 356" d="M1218.44,718.42H1196.1V696.08H1188v22.34h-22.32v8.13H1188v22.34h8.12V726.55h22.35Z"/><path id="b2663672-2ede-4229-8e5d-e99e0ddd4c83" data-name="Trazado 357" d="M1713.34,116.76h-67.58V49.18h-32.07v67.58h-67.58v32.07h67.58v67.58h32.07V148.83h67.58Z"/></g></svg>
