<svg style="fill: #FFFFFF;" id="e2943fe8-9ca3-4f83-9edf-30138ec79df9" data-name="Layer 1" xmlns="http://www.w3.org/2000/svg" viewBox="0 0 88.1 118.04"><path id="fcdb4d88-82d7-4001-89d9-1c21cd7ee50a" data-name="Trazado 525" d="M84.64,88.75H80.71V59a3.44,3.44,0,0,0-3.45-3.45H69.65V29.49A3.46,3.46,0,0,0,66.19,26H36.68a3.48,3.48,0,0,0-3.47,3.46h0V88.75h-.53a18.21,18.21,0,0,0-11-6.81V7.35A3.45,3.45,0,0,0,19.11,4L4.36.09A3.46,3.46,0,0,0,2.59,6.77L14.77,10V81.93A18.22,18.22,0,1,0,33,110.42H68.27v3.92a3.46,3.46,0,1,0,6.91.12.24.24,0,0,0,0-.12v-3.92h9.46A3.45,3.45,0,0,0,88.1,107V92.21a3.46,3.46,0,0,0-3.46-3.46ZM40.14,33H48v3.92a3.46,3.46,0,0,0,6.92,0V33h7.84v22.6H40.14Zm0,29.51H53.51v3.92a3.46,3.46,0,0,0,6.92.12v-4H73.81V88.75H40.14ZM18.23,111.12a11.3,11.3,0,1,1,11.3-11.3A11.3,11.3,0,0,1,18.23,111.12Zm63-7.61H36.07A18,18,0,0,0,36,95.67H81.18Z"/><path id="a4a61ad2-10a6-473c-8154-51d13c2a0e3d" data-name="Trazado 526" d="M21.62,98.91A3.46,3.46,0,1,0,18.91,103l.33-.08A3.46,3.46,0,0,0,21.62,98.91Z"/></svg>
