<svg style="fill: #FFFFFF;" id="af4db8a4-935e-46ab-92fe-566b49b10ce5" data-name="Layer 1" xmlns="http://www.w3.org/2000/svg" viewBox="0 0 78.76 105.02"><path id="aea1e497-a6f1-49b0-b366-dc8dfac8aba6" data-name="Trazado 527" d="M68.92,105H9.85A9.86,9.86,0,0,1,0,95.17V49.23a9.86,9.86,0,0,1,9.85-9.85H68.92a9.85,9.85,0,0,1,9.84,9.85V95.17A9.85,9.85,0,0,1,68.92,105ZM9.85,46a3.29,3.29,0,0,0-3.29,3.28V95.17a3.3,3.3,0,0,0,3.29,3.29H68.92a3.29,3.29,0,0,0,3.28-3.29V49.23A3.28,3.28,0,0,0,68.92,46Z"/><path id="a170c6b7-4fae-4bfc-8c35-ebd44a0fcb30" data-name="Trazado 528" d="M62.35,46a3.29,3.29,0,0,1-3.28-3.29V26.25a19.69,19.69,0,0,0-39.38,0V42.66a3.28,3.28,0,1,1-6.56,0V26.25a26.25,26.25,0,1,1,52.5,0V42.66A3.28,3.28,0,0,1,62.35,46Z"/><path id="f184c5f3-1fc8-4ce8-8a9a-9ae84c162f7a" data-name="Trazado 529" d="M39.38,74.39a8.76,8.76,0,1,1,8.75-8.75A8.75,8.75,0,0,1,39.38,74.39Zm0-10.94a2.19,2.19,0,1,0,2.19,2.19h0a2.19,2.19,0,0,0-2.19-2.19Z"/><path id="ff2591a0-f8a4-495f-8331-a6fcf7d8e47b" data-name="Trazado 530" d="M39.38,87.52a3.28,3.28,0,0,1-3.28-3.29h0v-12a3.28,3.28,0,1,1,6.56,0v12a3.27,3.27,0,0,1-3.28,3.29Z"/></svg>
