<svg style="fill: #FFFFFF" id="f18bc0d4-331c-47d5-8ce0-7c3f5cefb83b" data-name="Layer 1" xmlns="http://www.w3.org/2000/svg" viewBox="0 0 146 146"><g id="bd72c333-d2bd-4f6e-a7fe-577d100841aa" data-name="outline"><path id="b40fa1f2-a4c2-425b-b15b-db5c5e7a9ce0" data-name="Trazado 468" d="M140.56,9.73a.59.59,0,0,1-.52-.31L136.85,3A5.42,5.42,0,0,0,132,0H74.86A5.42,5.42,0,0,0,70,3l-3.2,6.41a.56.56,0,0,1-.51.31H5.44A5.45,5.45,0,0,0,0,15.18v99.19a2.43,2.43,0,0,0,2.43,2.43h80.3v17A12.18,12.18,0,0,0,94.9,146h29.2a12.18,12.18,0,0,0,12.17-12.17v-17h7.3a2.43,2.43,0,0,0,2.43-2.43V15.18A5.45,5.45,0,0,0,140.56,9.73ZM5.44,14.6H66.28a5.39,5.39,0,0,0,4.86-3l3.2-6.41a.59.59,0,0,1,.52-.31H132a.59.59,0,0,1,.52.31l3.2,6.41a5.39,5.39,0,0,0,4.86,3,.58.58,0,0,1,.58.57V39a5.63,5.63,0,0,0-.58,0h-4.29v-7.3a2.43,2.43,0,0,0-2.43-2.43H131.4V21.9A2.43,2.43,0,0,0,129,19.47H12.17A2.43,2.43,0,0,0,9.73,21.9h0v9.4a5.35,5.35,0,0,0-.57.91L6,38.62a.59.59,0,0,1-.52.31,5.44,5.44,0,0,0-.57,0V15.18A.57.57,0,0,1,5.44,14.6ZM126.53,29.2H14.6V24.33H126.53Zm4.87,4.87v4.86H84.59a.57.57,0,0,1-.51-.31L81.8,34.07Zm0,99.76a7.3,7.3,0,0,1-7.3,7.3H94.9a7.3,7.3,0,0,1-7.3-7.3V107.07A2.44,2.44,0,0,1,90,104.63H129a2.44,2.44,0,0,1,2.43,2.44Zm-4.87-34.06h-4.86v-7.3a12.17,12.17,0,0,0-24.34,0v7.3H92.47v-7.3a17,17,0,1,1,34.06,0Zm-9.73,0H102.2v-7.3a7.3,7.3,0,0,1,14.6,0Zm24.33,12.16h-4.86v-4.86a7.32,7.32,0,0,0-4.87-6.88V92.47a21.9,21.9,0,0,0-43.8,0h0v7.72a7.31,7.31,0,0,0-4.87,6.88v4.86H4.87V44.38a.57.57,0,0,1,.57-.58h0a5.42,5.42,0,0,0,4.87-3l3.2-6.41a.58.58,0,0,1,.51-.31H76a.57.57,0,0,1,.51.31l3.2,6.41a5.42,5.42,0,0,0,4.87,3h56a.58.58,0,0,1,.57.57Z"/><path id="abf96340-ff25-44b8-a89b-afa3ee2f2843" data-name="Trazado 469" d="M85.17,60.83H87.6A2.43,2.43,0,0,0,89,56.38l-14.6-9.74a2.45,2.45,0,0,0-2.7,0l-14.6,9.74a2.43,2.43,0,0,0,1.35,4.45h2.43v9.74H56v4.86H90V70.57H85.17ZM80.3,70.57H75.43V60.83H80.3Zm-7.3-19L79.56,56H66.44Zm-7.3,9.24h4.87v9.74H65.7Z"/><path id="f9217765-26b3-414b-922e-7791569ff615" data-name="Trazado 470" d="M109.5,109.5a9.74,9.74,0,0,0-7.3,16.17V129a7.3,7.3,0,0,0,14.6,0h0v-3.3a9.73,9.73,0,0,0-7.3-16.17Zm3.24,13.36a2.45,2.45,0,0,0-.81,1.81V129a2.43,2.43,0,0,1-4.86,0h0v-4.3a2.45,2.45,0,0,0-.81-1.81,4.87,4.87,0,1,1,6.87-.38h0A4.68,4.68,0,0,1,112.74,122.86Z"/></g></svg>
