<svg style="fill: #FFFFFF" id="a18d24b0-5b15-46c6-886e-8d4ee90c9400" data-name="Layer 1" xmlns="http://www.w3.org/2000/svg" viewBox="0 0 141.51 141.39"><g id="b96f3d5d-0088-4f68-b90a-11d4badc4c90" data-name="Grupo 1016"><path id="bc73ddcb-89a2-41c6-b784-03d46aa7b6f9" data-name="Trazado 453" d="M139.43,116.34h-3.51a14.53,14.53,0,0,0-7-7v-3.52a2.07,2.07,0,0,0-2.07-2.07h-8.37a2.07,2.07,0,0,0-2.07,2.07h0v3.52a14.55,14.55,0,0,0-7,7H106a2.07,2.07,0,0,0-2.07,2.07h0v8.36a2.07,2.07,0,0,0,2.07,2.07h3.52a14.53,14.53,0,0,0,7,7v3.52a2.07,2.07,0,0,0,2.07,2.07h8.36a2.07,2.07,0,0,0,2.07-2.07h0V135.8a14.53,14.53,0,0,0,7-7h3.51a2.07,2.07,0,0,0,2.07-2.07h0v-8.36a2.06,2.06,0,0,0-2.07-2.07Zm-2.07,8.36h-2.83a2.08,2.08,0,0,0-1.95,1.38,10.6,10.6,0,0,1-6.38,6.38,2.08,2.08,0,0,0-1.38,1.95v2.84H120.6v-2.83a2.07,2.07,0,0,0-1.38-1.95,10.61,10.61,0,0,1-6.39-6.39,2.07,2.07,0,0,0-2-1.38h-2.83v-4.22h2.83a2.06,2.06,0,0,0,2-1.38,10.59,10.59,0,0,1,6.39-6.38,2.1,2.1,0,0,0,1.38-2v-2.83h4.22v2.83a2.08,2.08,0,0,0,1.38,2,10.6,10.6,0,0,1,6.38,6.38,2.08,2.08,0,0,0,1.95,1.38h2.84Z"/><path id="f5f4fcbc-1bbe-4379-983a-9f6eca139604" data-name="Trazado 454" d="M122.71,116.34a6.25,6.25,0,1,0,6.25,6.25A6.25,6.25,0,0,0,122.71,116.34Zm0,8.36a2.11,2.11,0,1,1,2.11-2.11h0a2.12,2.12,0,0,1-2.11,2.11Z"/><path id="a2ab0983-9522-4730-8c3e-d4cffc5dc7b8" data-name="Trazado 455" d="M35.53,12.56H32a14.53,14.53,0,0,0-7-7V2.08A2.07,2.07,0,0,0,23,0H14.62a2.07,2.07,0,0,0-2.07,2.07V5.6a14.53,14.53,0,0,0-7,7H2.07A2.07,2.07,0,0,0,0,14.63V23a2.07,2.07,0,0,0,2.07,2.07H5.59a14.53,14.53,0,0,0,7,7v3.52a2.07,2.07,0,0,0,2.07,2.07H23a2.07,2.07,0,0,0,2.07-2.07V32a14.59,14.59,0,0,0,7-7h3.52A2.07,2.07,0,0,0,37.6,23V14.63A2.07,2.07,0,0,0,35.53,12.56Zm-2.07,8.36H30.62a2.08,2.08,0,0,0-1.95,1.38,10.59,10.59,0,0,1-6.38,6.39,2.06,2.06,0,0,0-1.38,1.95v2.83H16.68V30.64a2.05,2.05,0,0,0-1.37-1.95A10.61,10.61,0,0,1,8.92,22.3,2.07,2.07,0,0,0,7,20.92H4.14V16.7H7a2.06,2.06,0,0,0,2-1.38,10.59,10.59,0,0,1,6.39-6.38,2.07,2.07,0,0,0,1.37-2V4.15h4.23V7a2.08,2.08,0,0,0,1.38,2,10.6,10.6,0,0,1,6.38,6.38,2.08,2.08,0,0,0,1.95,1.38h2.84Z"/><path id="a4da9ee3-3adc-4a85-8f73-983569e29a32" data-name="Trazado 456" d="M98.74,88.5l-5.07-5.07a25.42,25.42,0,0,0,2.07-4.72h7.43a2.08,2.08,0,0,0,2.08-2.07h0v-12a2.07,2.07,0,0,0-2.07-2.07H95.74a25.8,25.8,0,0,0-2.07-4.73l5.07-5.06a2.07,2.07,0,0,0,0-2.93h0L91,42.1a2.07,2.07,0,0,0-2.93,0l-5.26,5.26a26.23,26.23,0,0,0-3.88-1.61V38.31a2.07,2.07,0,0,0-2.07-2.07h-11a2.07,2.07,0,0,0-2.07,2.07h0v7.17A25.71,25.71,0,0,0,59,47.36L53.69,42.1a2.07,2.07,0,0,0-2.93,0L43,49.88a2.07,2.07,0,0,0,0,2.93h0L48,57.87A26.46,26.46,0,0,0,46,62.6H38.54a2.07,2.07,0,0,0-2.07,2.07h0v12a2.07,2.07,0,0,0,2.07,2.07H46A26.06,26.06,0,0,0,48,83.43L43,88.5a2.07,2.07,0,0,0,0,2.93l7.78,7.78a2.08,2.08,0,0,0,2.92,0L59,93.94a25.75,25.75,0,0,0,4.8,1.89V103a2.06,2.06,0,0,0,2.07,2.07h11A2.07,2.07,0,0,0,78.89,103h0V95.55a26.23,26.23,0,0,0,3.88-1.61L88,99.2a2.07,2.07,0,0,0,2.93,0l7.78-7.77a2.07,2.07,0,0,0,0-2.93ZM89.5,94.81l-4.9-4.9a2.06,2.06,0,0,0-2.52-.31A22.06,22.06,0,0,1,76.31,92a2.07,2.07,0,0,0-1.56,2v6.92H67.89V94.21a2.07,2.07,0,0,0-1.64-2,21.89,21.89,0,0,1-6.61-2.59,2.07,2.07,0,0,0-2.52.32l-4.9,4.9L47.37,90l4.74-4.74a2.06,2.06,0,0,0,.28-2.59,21.93,21.93,0,0,1-2.85-6.5,2.06,2.06,0,0,0-2-1.56H40.61V66.74h6.93a2.06,2.06,0,0,0,2-1.56,21.82,21.82,0,0,1,2.85-6.5,2.07,2.07,0,0,0-.27-2.59l-4.75-4.74,4.85-4.86,4.9,4.9a2.07,2.07,0,0,0,2.52.32,21.89,21.89,0,0,1,6.61-2.59,2.07,2.07,0,0,0,1.64-2V40.39h6.86v6.92a2.07,2.07,0,0,0,1.56,2,21.59,21.59,0,0,1,5.77,2.39,2.07,2.07,0,0,0,2.52-.32l4.9-4.9,4.85,4.86L89.6,56.09a2.07,2.07,0,0,0-.27,2.59,21.93,21.93,0,0,1,2.85,6.5,2.06,2.06,0,0,0,2,1.56h6.93v7.83H94.18a2.06,2.06,0,0,0-2,1.56,21.93,21.93,0,0,1-2.85,6.5,2.07,2.07,0,0,0,.27,2.59L94.35,90Z"/><path id="ec1f1040-2594-49a9-a0eb-2cb486d4af80" data-name="Trazado 457" d="M70.86,60.22a10.64,10.64,0,0,0-1.59.12,2.07,2.07,0,1,0,.56,4.1h.07a6.2,6.2,0,0,1,1-.07,6.29,6.29,0,1,1-6.3,6.28,6,6,0,0,1,.08-1,2.07,2.07,0,1,0-4.09-.63,10.43,10.43,0,1,0,11.9-8.72,10.64,10.64,0,0,0-1.59-.12Z"/><path id="b3fa808d-c3a1-4757-9c99-1ba8aab1bbd8" data-name="Trazado 458" d="M122.71,12.54A6.26,6.26,0,1,0,129,18.8,6.25,6.25,0,0,0,122.71,12.54Zm0,8.37a2.12,2.12,0,1,1,2.12-2.11h0A2.13,2.13,0,0,1,122.71,20.91Z"/><path id="a77c7689-d629-4ca2-81b3-59117a498bd3" data-name="Trazado 459" d="M139.44,12.55h-3.52a14.53,14.53,0,0,0-7-7V2.07A2.07,2.07,0,0,0,126.89,0h-8.35a2.07,2.07,0,0,0-2.07,2.07h0V5.59a14.53,14.53,0,0,0-7,7H106a2.05,2.05,0,0,0-2.07,2.06h0V23A2.07,2.07,0,0,0,106,25.05h3.51a14.61,14.61,0,0,0,7,7v3.52a2.07,2.07,0,0,0,2.07,2.07h8.37A2.07,2.07,0,0,0,129,35.53h0V32a14.55,14.55,0,0,0,6.95-7h3.52A2.07,2.07,0,0,0,141.51,23h0V14.61a2.07,2.07,0,0,0-2.07-2.06Zm-2.07,8.36h-2.83a2.08,2.08,0,0,0-2,1.38,10.58,10.58,0,0,1-6.38,6.38,2.08,2.08,0,0,0-1.38,1.95v2.84H120.6V30.62a2.08,2.08,0,0,0-1.38-1.95,10.62,10.62,0,0,1-6.39-6.38,2.06,2.06,0,0,0-2-1.38h-2.82V16.68h2.83a2.06,2.06,0,0,0,2-1.37,10.59,10.59,0,0,1,6.38-6.39A2.06,2.06,0,0,0,120.6,7V4.14h4.23V7a2.06,2.06,0,0,0,1.37,2,10.58,10.58,0,0,1,6.39,6.39,2.05,2.05,0,0,0,1.95,1.37h2.83Z"/><path id="ad5f51b9-0d5e-4441-b3df-b61f4a9afeac" data-name="Trazado 460" d="M25.26,18.8A6.26,6.26,0,1,0,19,25.05h0A6.26,6.26,0,0,0,25.26,18.8Zm-8.37,0A2.12,2.12,0,1,1,19,20.91h0a2.11,2.11,0,0,1-2.1-2.11Z"/><path id="b61543b9-3cbb-4314-9b71-589b793f03ee" data-name="Trazado 461" d="M35.73,116.26H32.21a14.53,14.53,0,0,0-7-7v-3.52a2.07,2.07,0,0,0-2.07-2.07H14.82a2.07,2.07,0,0,0-2.07,2.07h0v3.52a14.53,14.53,0,0,0-7,7H2.28a2.06,2.06,0,0,0-2.07,2.07h0v8.36a2.06,2.06,0,0,0,2.07,2.07H5.79a14.53,14.53,0,0,0,7,7v3.51a2.07,2.07,0,0,0,2.07,2.07h8.36a2.07,2.07,0,0,0,2.07-2.07h0v-3.52a14.55,14.55,0,0,0,7-7h3.52a2.07,2.07,0,0,0,2.07-2.07h0v-8.36a2.07,2.07,0,0,0-2.07-2.07Zm-2.07,8.36H30.83A2.06,2.06,0,0,0,28.88,126a10.59,10.59,0,0,1-6.39,6.38,2.09,2.09,0,0,0-1.38,2v2.84H16.89v-2.84a2.06,2.06,0,0,0-1.38-2A10.59,10.59,0,0,1,9.13,126a2.08,2.08,0,0,0-2-1.37H4.35v-4.23H7.18a2.07,2.07,0,0,0,2-1.38,10.6,10.6,0,0,1,6.38-6.38,2.07,2.07,0,0,0,1.38-1.95v-2.83h4.22v2.83a2.07,2.07,0,0,0,1.38,1.95A10.58,10.58,0,0,1,28.88,119a2.07,2.07,0,0,0,1.95,1.38h2.83Z"/><path id="bf59e181-de9a-4563-b3cb-a2b01993a99e" data-name="Trazado 462" d="M19,116.26a6.25,6.25,0,1,0,6.26,6.25A6.25,6.25,0,0,0,19,116.26Zm0,8.36a2.11,2.11,0,1,1,2.12-2.11h0A2.13,2.13,0,0,1,19,124.62Z"/><path id="e16d3b1d-de89-4212-9fb9-481f20d37c50" data-name="Trazado 463" d="M34.41,31.27a2.07,2.07,0,0,0-2.93,2.93l5.94,5.95H35.73a2.07,2.07,0,1,0,0,4.14h6.69a2.1,2.1,0,0,0,2.07-2.08V35.53a2.07,2.07,0,1,0-4.14,0h0v1.69Z"/><path id="b41e7fc9-2b2a-4f19-b8ac-af77d683f745" data-name="Trazado 464" d="M97.23,42.42a2.1,2.1,0,0,0,2.06,1.87H106a2.07,2.07,0,1,0,0-4.14h-1.7l5.94-5.95a2.07,2.07,0,0,0-2.87-3l0,.05-6,5.95V35.53a2.07,2.07,0,1,0-4.14,0v6.69C97.22,42.28,97.23,42.35,97.23,42.42Z"/><path id="a395da91-27d8-4be3-9f86-65f7f1663ad2" data-name="Trazado 465" d="M44.48,98.33a2.09,2.09,0,0,0-2.06-1.87H35.73a2.07,2.07,0,1,0,0,4.14h1.69l-5.94,6a2.07,2.07,0,0,0,2.93,2.92l5.94-5.94v1.69a2.07,2.07,0,1,0,4.14,0V98.53a1.34,1.34,0,0,0,0-.2Z"/><path id="ab6d8957-4841-44a3-9af8-dfb7b8d0fbe0" data-name="Trazado 466" d="M107.31,109.47a2.07,2.07,0,0,0,3-2.87l-.05,0-5.95-6H106a2.07,2.07,0,1,0,0-4.14H99.3a2.09,2.09,0,0,0-2.07,2.07v6.69a2.07,2.07,0,0,0,4.14,0v-1.69Z"/><path id="b74014a0-5f7c-4b1c-a345-73ffaa51290f" data-name="Trazado 467" d="M81.23,70.69a10.64,10.64,0,0,0-.12-1.59,2.07,2.07,0,0,0-4.09.63,5,5,0,0,1,.07,1,6.29,6.29,0,1,1-6.27-6.3,6.19,6.19,0,0,1,1,.08,2.07,2.07,0,0,0,.63-4.1,10.44,10.44,0,1,0,8.71,11.91,10.64,10.64,0,0,0,.12-1.59Z"/></g></svg>
