<svg style="fill: #FFFFFF;" id="ed8da676-6b73-457d-ab95-9c4abeaa3bc7" data-name="Layer 1" xmlns="http://www.w3.org/2000/svg" viewBox="0 0 100.63 110.17"><g id="b8f51979-7c7c-443e-ba3a-2d766dacfb05" data-name="Grupo 1100"><g id="b677d9b6-905c-4e8f-8fe4-ed3f5fc84286" data-name="Grupo 1099"><path id="f968a1cb-d6a2-43eb-9675-3f85d4b586da" data-name="Trazado 531" d="M50.54,75.25a7,7,0,1,0-7-7h0A7,7,0,0,0,50.54,75.25Zm0-10.84a3.81,3.81,0,1,1-3.81,3.81h0a3.82,3.82,0,0,1,3.81-3.81Z"/><path id="a3b87aad-f6d8-4542-9c19-bb45dcce2741" data-name="Trazado 532" d="M81.74,23.31A11.66,11.66,0,1,0,70.09,11.66,11.66,11.66,0,0,0,81.74,23.31Zm0-20.08a8.43,8.43,0,1,1-8.42,8.43h0A8.42,8.42,0,0,1,81.74,3.23Z"/><path id="eae2e6ce-752b-4014-ada5-bf963c4723fe" data-name="Trazado 533" d="M99,38.79c-.9,0-1.62-2.18-1.62-1.29V65a1,1,0,0,1-1,1H92.42V37.51a1.62,1.62,0,0,0-3.23,0h0v68.4a1,1,0,0,1-1,1H84.4a1,1,0,0,1-1-1V80.23a1.62,1.62,0,0,0-3.23,0h0V105.9a1.05,1.05,0,0,1-1,1H75.34a1,1,0,0,1-1-1V37.5a1.62,1.62,0,0,0-3.23,0V66H67.13a1,1,0,0,1-1-1V37.5a9.62,9.62,0,0,1,9.61-9.61H87.79A9.62,9.62,0,0,1,97.4,37.5a1.62,1.62,0,0,0,3.23,0A12.85,12.85,0,0,0,87.79,24.66H75.7A12.86,12.86,0,0,0,62.86,37.5V65a4.28,4.28,0,0,0,4.27,4.26h3.93V105.9a4.28,4.28,0,0,0,4.27,4.27h3.75a4.26,4.26,0,0,0,2.66-.93,4.26,4.26,0,0,0,2.66.93h3.75a4.28,4.28,0,0,0,4.27-4.27V69.23h3.94A4.28,4.28,0,0,0,100.63,65V37.51C100.63,36.62,99.91,38.79,99,38.79Z"/><path id="b103f86d-e788-4cdb-af4e-4e42b6ac1155" data-name="Trazado 534" d="M16.78,33.18A11.66,11.66,0,1,0,5.12,21.52,11.66,11.66,0,0,0,16.78,33.18Zm0-20.09a8.43,8.43,0,1,1-8.43,8.43A8.44,8.44,0,0,1,16.78,13.09Z"/><path id="f67a5c72-36d6-4a7b-ba38-8a75b11eca59" data-name="Trazado 535" d="M22.09,34.69H11.47A11.49,11.49,0,0,0,0,46.17v24.1a4,4,0,0,0,4,4H4L2.88,84.39a1.62,1.62,0,0,0,1.43,1.78H7.2v20a4,4,0,0,0,4,3.94h3.29a3.9,3.9,0,0,0,2.33-.77,4,4,0,0,0,2.34.77H22.4a3.94,3.94,0,0,0,4-3.94V97.32a1.62,1.62,0,1,0-3.23,0v8.91a.72.72,0,0,1-.72.72H19.11a.73.73,0,0,1-.72-.72V89a1.62,1.62,0,0,0-3.23,0v17.24a.72.72,0,0,1-.71.72h-3.3a.72.72,0,0,1-.71-.72v-20H23.12V97.32c0,.89.88-1.42,1.77-1.42s1.46,2.31,1.46,1.42V86.18h2.72a1.61,1.61,0,0,0,1.61-1.62.91.91,0,0,0,0-.17L29.56,74.22h.05a4,4,0,0,0,4-4V46.17A11.5,11.5,0,0,0,22.09,34.69Zm8.24,35.58h0a.72.72,0,0,1-.72.72h-.4L26.26,44.1a1.61,1.61,0,0,0-3.21.35L27.28,83h-21l4.23-38.49a1.61,1.61,0,0,0-3.21-.35L4.35,71H4a.71.71,0,0,1-.72-.71V46.17a8.26,8.26,0,0,1,8.25-8.25H22.09a8.26,8.26,0,0,1,8.24,8.25v24.1Z"/><path id="a285373f-2ea8-4510-8855-f8ae279f25ad" data-name="Trazado 536" d="M62.77,69.88a4.34,4.34,0,0,0-3,1.37l-6,6.41H47.5l-6-6.41a4.32,4.32,0,1,0-6.3,5.92l7,7.43V106a4.21,4.21,0,0,0,4.21,4.21h8.49A4.21,4.21,0,0,0,59.08,106V97.1a1.62,1.62,0,0,0-3.23,0V106a1,1,0,0,1-1,1h-2.7V93.48a1.62,1.62,0,0,0-3.23,0h0V107H46.37a1,1,0,0,1-1-1V84a1.58,1.58,0,0,0-.43-1.1L37.53,75a1.11,1.11,0,0,1-.07-1.56A1.09,1.09,0,0,1,39,73.33l.12.13,6.5,6.92a1.63,1.63,0,0,0,1.18.5h7.63a1.61,1.61,0,0,0,1.17-.5l6.5-6.92a1.1,1.1,0,1,1,1.72,1.37l-.12.13-7.41,7.9a1.59,1.59,0,0,0-.44,1.1V97.1c0,.89,1.07-1.18,2-1.18S59.09,98,59.09,97.1V84.6l7-7.43a4.33,4.33,0,0,0-3.29-7.29Z"/></g></g></svg>
