<svg style="fill:#07273D" id="eab2c658-7a9d-414a-b2c1-684909472c54" data-name="Layer 1" xmlns="http://www.w3.org/2000/svg" viewBox="0 0 87.12 97.86"><g id="ab74cacb-209a-4867-a09a-f1cb10da3367" data-name="Grupo 888"><g id="a1e660ff-f996-4c28-bf13-4ccaab838779" data-name="Grupo 887"><g id="bd59236d-1ede-4789-bcf2-93aab10a7eb4" data-name="Grupo 886"><path id="ba7cfac7-1368-4a1c-93a3-c83819ed8b26" data-name="Trazado 398" d="M31.38,49H12.11A1.43,1.43,0,1,0,12,51.88H31.38A1.43,1.43,0,1,0,31.46,49Z"/><path id="b79e1e73-cfa7-4961-b37a-aa65e9722dcb" data-name="Trazado 399" d="M31.38,61.52H12.11A1.44,1.44,0,0,0,12,64.39H31.38a1.44,1.44,0,1,0,.08-2.87Z"/><path id="e22176e4-ca18-49a0-9601-88519d9744d0" data-name="Trazado 400" d="M31.38,74H12.11a1.44,1.44,0,0,0,0,2.87H31.38a1.44,1.44,0,0,0,0-2.87Z"/><path id="bef51d51-56fa-4352-944d-8f54faef7982" data-name="Trazado 401" d="M47.46,59.74h3a1.44,1.44,0,1,0,.08-2.87H47.46a1.42,1.42,0,0,0-1.39,1.47A1.44,1.44,0,0,0,47.46,59.74Z"/><path id="ab7ce062-b94d-4a80-85c7-8a7dbe79d68e" data-name="Trazado 402" d="M59.75,56.87h-3a1.43,1.43,0,0,0-1.47,1.39,1.45,1.45,0,0,0,1.4,1.48h3.12a1.44,1.44,0,0,0,0-2.87Z"/><path id="b791fe97-b353-4898-b27e-0e9082852697" data-name="Trazado 403" d="M69,56.87H66a1.44,1.44,0,0,0,0,2.87h3a1.44,1.44,0,0,0,0-2.87Z"/><path id="b2a0f416-ae65-4ff6-830d-8f7619db929f" data-name="Trazado 404" d="M78.23,56.87h-3a1.42,1.42,0,0,0-1.39,1.47,1.44,1.44,0,0,0,1.39,1.4h3a1.45,1.45,0,0,0,1.4-1.48,1.43,1.43,0,0,0-1.4-1.39Z"/><path id="eba44912-9e0d-4207-9aa4-f2f6394fe3cc" data-name="Trazado 405" d="M47.46,67.19h3a1.44,1.44,0,1,0,.08-2.87H47.46a1.44,1.44,0,0,0,0,2.87Z"/><path id="b2c0444c-4528-45f4-9320-15e70e630f32" data-name="Trazado 406" d="M59.75,64.32h-3a1.44,1.44,0,0,0,0,2.87h3a1.44,1.44,0,0,0,0-2.87Z"/><path id="eae9160b-523c-48b2-81d7-9defeca35ef7" data-name="Trazado 407" d="M69,64.32H66a1.44,1.44,0,0,0,0,2.87h3a1.44,1.44,0,0,0,0-2.87Z"/><path id="f7982429-7aa1-41de-b31e-dd2a42beef96" data-name="Trazado 408" d="M78.23,64.32h-3a1.44,1.44,0,0,0,0,2.87h3a1.44,1.44,0,0,0,0-2.87Z"/><path id="b5a2ac8a-144f-4cda-ae65-eae5915324f8" data-name="Trazado 409" d="M47.46,74.64h3a1.43,1.43,0,1,0,.08-2.86H47.46a1.43,1.43,0,0,0,0,2.86Z"/><path id="b6223e4b-a7fb-4dbc-89d7-537da3b01c63" data-name="Trazado 410" d="M59.75,71.78h-3a1.43,1.43,0,0,0,0,2.86h3a1.43,1.43,0,0,0,0-2.86Z"/><path id="ac1861a9-ef91-41b9-812b-4bd0d06b3678" data-name="Trazado 411" d="M69,71.78H66a1.43,1.43,0,0,0,0,2.86h3a1.43,1.43,0,0,0,0-2.86Z"/><path id="a2b93cdc-6be4-4bd7-9436-a270a05e8938" data-name="Trazado 412" d="M78.23,71.78h-3a1.43,1.43,0,0,0,0,2.86h3a1.43,1.43,0,0,0,0-2.86Z"/><path id="eaf9f3aa-d601-4fc2-86ac-049add0337d7" data-name="Trazado 413" d="M15.27,34.74a1.43,1.43,0,0,0-1.56,2.4A9.54,9.54,0,0,0,19.11,39v1.93A1.43,1.43,0,0,0,22,41V38.87a7.73,7.73,0,0,0,6.23-6.38,6.78,6.78,0,0,0-4.67-7.76L22,24.16v-8a5.18,5.18,0,0,1,2.3,1,1.43,1.43,0,0,0,1.94-2.11A8.14,8.14,0,0,0,22,13.24V11.51a1.43,1.43,0,0,0-2.86-.08v1.92a7.93,7.93,0,0,0-.87.22,6.41,6.41,0,0,0-4.39,5,5.62,5.62,0,0,0,1.84,5.54,15.39,15.39,0,0,0,3.42,1.94v10a6.74,6.74,0,0,1-3.83-1.37ZM22,27.21l.6.22A4,4,0,0,1,25.37,32,4.94,4.94,0,0,1,22,35.93Zm-4.52-5.33a2.79,2.79,0,0,1-.79-2.75,3.58,3.58,0,0,1,2.4-2.82h0v6.61A10.84,10.84,0,0,1,17.45,21.88Z"/><path id="e420710a-9faa-475f-8239-fd8e8970687e" data-name="Trazado 414" d="M75.22,85.11c-.79,0-1.56-.79-1.56,0v6.78A3.11,3.11,0,0,1,70.55,95H6a3.11,3.11,0,0,1-3.11-3.11V6A3.11,3.11,0,0,1,6,2.87H56.14a3.15,3.15,0,0,1,.44,0v12a5.06,5.06,0,0,0,5.06,5.05h12a2.28,2.28,0,0,1,0,.45l0,12.53c0,.79.39-.19,1.18-.19s1.73,1,1.73.19V20.39a6.24,6.24,0,0,0-1.72-4.19L60.36,1.75l0,0h0l0,0A6,6,0,0,0,56.14,0H6A6,6,0,0,0,0,6V91.89a6,6,0,0,0,6,6H70.55a6,6,0,0,0,6-6V85.11c0-.79-.08.31-.88.31ZM59.45,4.9,71.63,17.08h-10a2.19,2.19,0,0,1-2.18-2.19v-10Z"/><path id="be5b5837-d600-46c8-993b-c740e3a39b6e" data-name="Trazado 415" d="M82.14,32.53H43.54a5,5,0,0,0-5,5V49c0,.79.64-1.1,1.43-1.1s1.44,2.1,1.44,1.31V37.51a2.1,2.1,0,0,1,2.11-2.11h38.6a2.12,2.12,0,0,1,2.11,2.11V80.63a2.13,2.13,0,0,1-2.11,2.11H43.55a2.12,2.12,0,0,1-2.11-2.11V49A1.44,1.44,0,1,0,38.57,49V80.63a5,5,0,0,0,5,5h38.6a5,5,0,0,0,5-5V37.51A5,5,0,0,0,82.14,32.53Z"/><path id="abadb309-39f5-4b79-bb46-d8796364695d" data-name="Trazado 416" d="M79.66,42a2.53,2.53,0,0,0-2.53-2.53H48.56A2.53,2.53,0,0,0,46,42v7.34a2.53,2.53,0,0,0,2.53,2.53H77.13a2.54,2.54,0,0,0,2.54-2.53ZM76.8,49H48.9V42.35H76.8V49Z"/></g></g></g></svg>