<svg style="fill:#07273D" id="a77a3df6-fe4d-4c15-a750-af45b1d9bfa5" data-name="Layer 1" xmlns="http://www.w3.org/2000/svg" viewBox="0 0 100.37 99.86"><g id="e4ad1c1f-fa2e-494c-89ee-46593b1204f6" data-name="Grupo 885"><path id="b0b10a76-6578-4399-be6c-4d6b51d4de4c" data-name="Trazado 392" d="M92.57,69a2.34,2.34,0,0,0,2.34-2.34V62.58H98a2.38,2.38,0,0,0,2.37-2.37V54.83A2.37,2.37,0,0,0,98,52.46H93.76V36.3a5.38,5.38,0,0,0,1.27.15,5.54,5.54,0,0,0,1.4-.18,5.33,5.33,0,0,0,1.27-9.76L53,.73a6,6,0,0,0-5.71,0L2.66,26.51a5.33,5.33,0,0,0,4,9.79V52.46H2.37A2.37,2.37,0,0,0,0,54.83V60.2a2.37,2.37,0,0,0,2.37,2.37H5.45v4.07A2.35,2.35,0,0,0,7.79,69H9.56V83.33H7.79a2.35,2.35,0,0,0-2.34,2.35v4.06H2.37A2.37,2.37,0,0,0,0,92.11v5.38a2.37,2.37,0,0,0,2.37,2.37H57.25c.81,0-4.24-.66-4.24-1.47s3.92-1.47,3.11-1.47H2.94V92.68H97.42v4.24H53.89a1.47,1.47,0,0,0,0,2.94H98a2.37,2.37,0,0,0,2.37-2.37V92.11A2.37,2.37,0,0,0,98,89.74H94.91V85.68a2.35,2.35,0,0,0-2.34-2.35H90.79V69h1.78ZM6.51,33.19a2.39,2.39,0,0,1-3.26-.87h0a2.4,2.4,0,0,1,.88-3.26L48.8,3.27a3.05,3.05,0,0,1,2.76,0L96.23,29.06a2.38,2.38,0,0,1-2.38,4.13L50.92,8.4a1.48,1.48,0,0,0-1.47,0ZM2.94,55.39H47.11a1.47,1.47,0,0,0,0-2.94H9.55V34.84L50.18,11.37,90.82,34.84V52.46H46.63c-.81,0,1.19.65,1.19,1.47s-1.52,1.47-.71,1.47H97.42v4.24H2.94ZM41.06,66.05V62.58H59.29v3.47ZM55.18,69V83.33h-10V69ZM8.39,66.05V62.58H26.62v3.47ZM22.5,69V83.33h-10V69Zm4.12,20.75H8.39V86.27H26.62Zm11.5-4.06v4.06H29.56V85.68a2.35,2.35,0,0,0-2.35-2.35H25.44V69h1.77a2.35,2.35,0,0,0,2.35-2.34V62.58h8.56v4.07A2.36,2.36,0,0,0,40.47,69h1.77V83.33H40.47A2.36,2.36,0,0,0,38.12,85.68Zm21.17,4.06H41.06V86.27H59.29ZM70.8,85.68v4.06H62.24V85.68a2.36,2.36,0,0,0-2.35-2.35H58.12V69h1.77a2.36,2.36,0,0,0,2.35-2.34V62.58H70.8v4.07A2.35,2.35,0,0,0,73.15,69h1.77V83.33H73.15a2.35,2.35,0,0,0-2.35,2.35ZM92,86.27v3.47H73.74V86.27ZM77.86,83.33V69h10V83.33ZM73.74,66.05V62.58H92v3.47Z"/><path id="f7c96091-45b0-4c65-ac47-e89e1b77406e" data-name="Trazado 393" d="M56.57,23.07a6.18,6.18,0,1,0-6.17,6.18A6.17,6.17,0,0,0,56.57,23.07Zm-9.41,0a3.24,3.24,0,1,1,3.24,3.24h0a3.24,3.24,0,0,1-3.24-3.24Z"/><g id="f9ba4e0b-996e-4cdd-8077-a6c298ce3387" data-name="Grupo 884"><path id="a49e349a-3772-4dd5-9167-74d4c1b51824" data-name="Trazado 394" d="M32.45,40a4.08,4.08,0,0,0-1.26-5.64A4,4,0,0,0,29,33.7H25.67a1.47,1.47,0,0,0-1.47,1.47h0V46.58a1.47,1.47,0,0,0,1.47,1.47h3.9A4.54,4.54,0,0,0,32.44,40ZM29,36.64a1.15,1.15,0,0,1,1.16,1.15A1.16,1.16,0,0,1,29,39H27.14V36.63H29Zm.58,8.46H27.14V41.9h2.43a1.6,1.6,0,1,1,0,3.2Z"/><path id="aacc9a5a-65ab-4c04-b78c-d48238205fb1" data-name="Trazado 395" d="M44.31,34.81v0a1.72,1.72,0,0,0-1.6-1.07h0a1.71,1.71,0,0,0-1.6,1.07l0,0L36.8,46.06a1.47,1.47,0,1,0,2.75,1l.7-1.86h4.86l.7,1.85a1.48,1.48,0,0,0,1.9.86,1.46,1.46,0,0,0,.85-1.89Zm-2.94,7.5,1.32-3.47L44,42.31Z"/><path id="aa9ea2fe-d617-4980-8c0b-a44466c78727" data-name="Trazado 396" d="M61.08,33.7h0a1.46,1.46,0,0,0-1.46,1.48h0L59.68,42,54.4,34.35a1.47,1.47,0,0,0-2-.37,1.44,1.44,0,0,0-.63,1.21v11.4a1.47,1.47,0,0,0,2.94,0h0V39.91l5,7.27a1.62,1.62,0,0,0,1.83.68,1.68,1.68,0,0,0,1.15-1.67l-.11-11A1.46,1.46,0,0,0,61.08,33.7Z"/><path id="aad5a0f8-cec2-4a92-8c8b-004f116fe0e5" data-name="Trazado 397" d="M76.05,45.53l-5.14-5,4.7-4.32a1.47,1.47,0,1,0-2-2.16l-3.75,3.45V35a1.47,1.47,0,1,0-2.94,0V46.58a1.47,1.47,0,0,0,2.94,0h0V43.65l4.14,4a1.47,1.47,0,1,0,2-2.11Z"/></g></g></svg>