<svg style="fill:#07273D" id="a846377a-4808-4bfb-9b84-4c2d1c8a8270" data-name="Layer 1" xmlns="http://www.w3.org/2000/svg" viewBox="0 0 92.38 91.36"><g id="eac4be95-2aa4-461e-a75f-a5aa310b5981" data-name="Grupo 911"><g id="e30d0775-b1d1-4e59-a33d-4e9e0a98da42" data-name="Grupo 910"><g id="a4f6332f-181e-4596-9270-937d53af0450" data-name="Grupo 909"><path id="a5ec605d-376d-42ff-bcbe-b76563aad511" data-name="Trazado 442" d="M20.43,29.21h-10c-.67,0-1,.71-1,1.38s.35,1.4,1,1.4h3.49v13.6c0,.64.76,1,1.54,1s1.54-.33,1.54-1V32h3.47C21.71,32,21.74,29.21,20.43,29.21Z"/><path id="bbb1cfd2-7e4a-40f3-b20f-ba615172145c" data-name="Trazado 443" d="M29.09,30.12c-.21-.72-1.09-1.05-2-1.05a1.91,1.91,0,0,0-2,1.05c-4.69,15.32-4.63,15-4.63,15.16,0,1.16,2.67,1.85,3,.67l.9-3.16h5.43l.9,3.16c.12.45.52.61,1.05.61.83,0,1.94-.54,1.94-1.28a1,1,0,0,0,0-.24ZM25,40.37l2.07-7.29,2.06,7.29Z"/><path id="ef5c5242-b0ce-4e09-8c5c-37a9da515072" data-name="Trazado 444" d="M34.24,45.14c0,.85,1.19,1.54,2,1.54a1,1,0,0,0,.85-.5l3.47-6.1,3.49,6.1a.91.91,0,0,0,.83.5c1,0,2.5-.94,1.85-2.11l-4.11-6.69,4-6.67a1.32,1.32,0,0,0,.21-.67c0-.83-1.09-1.44-2-1.44-1.11,0-1,.87-4.27,6.48l-3.23-5.82a1.12,1.12,0,0,0-1-.66c-.88,0-2,.61-2,1.44a1.32,1.32,0,0,0,.21.67l4,6.67-4.11,6.69A1.29,1.29,0,0,0,34.24,45.14Z"/><path id="efb1ec05-cea3-41d4-87fc-52fdae4f4d58" data-name="Trazado 445" d="M90.54,37.25A8.23,8.23,0,0,0,79,36.07L65.75,46.81V8.41A8.41,8.41,0,0,0,57.35,0H18a8.41,8.41,0,0,0-8.4,8.41v3.16H8.46A8.48,8.48,0,0,0,0,20V75.9c0,.8.93-1.15,1.73-1.15s1.16,2,1.16,1.15V20a5.59,5.59,0,0,1,5.57-5.57h31.3a6.07,6.07,0,0,1,1.6.24V25.79a1.44,1.44,0,0,0,1.45,1.44H53.27c.3,1.2.11-.21.17,32.46l-8.9,7.24H21.72a1.36,1.36,0,0,0,0,2.71h19.5A6,6,0,0,0,39.9,76.7l-1.72,1.4a2.52,2.52,0,0,1-1.58.56H12a1.36,1.36,0,0,0,0,2.71H36.6a5.25,5.25,0,0,0,3.29-1.17l1.72-1.4a6,6,0,0,0,7.47-.09l4.36-3.53V82.9a5.58,5.58,0,0,1-5.57,5.57H8.46A5.57,5.57,0,0,1,2.89,82.9V75.42a1.45,1.45,0,0,0-2.89,0V82.9a8.47,8.47,0,0,0,8.46,8.46H47.87a8.47,8.47,0,0,0,8.46-8.46V78.81h1a8.41,8.41,0,0,0,8.4-8.41V65.16h0a3.6,3.6,0,0,0,4-.37l18.47-15a3.1,3.1,0,0,1-.91,3.54L75.11,63.19a1.36,1.36,0,1,0,1.62,2.18l.09-.08L89,55.39a5.78,5.78,0,0,0,1.3-7.47A8.25,8.25,0,0,0,90.54,37.25ZM44.26,24.34V16.68l7.22,7.64H44.26Zm5.44-6.07c-3.47-3.6-4.33-5-6.34-5.89a8.41,8.41,0,0,0-3.59-.81H12.32V8.41A5.7,5.7,0,0,1,18,2.71H57.35a5.7,5.7,0,0,1,5.7,5.7h0V49l-3.7,3a3.57,3.57,0,0,0-1.18,3.8l-1.84,1.5c-.26-28.75.57-29.33-.71-32.12-1-2.2-2.2-2.87-5.92-6.94ZM47.38,76.61A3.3,3.3,0,0,1,42,73.72c.2-1.9,1.72-2.52,2.4-3.2l4.16,5.11ZM63,70.4a5.7,5.7,0,0,1-5.7,5.7h-1V72.83L63,67.36ZM50.69,73.92l-4.17-5.11,13.15-10.7h0l0,0h0l4.11,5ZM67.37,62.87c-.44,0,0,.42-6.44-7.51a.86.86,0,0,1,.13-1.23l1.14-.93h0v0h0l6.92,8.5C68.15,62.49,68,62.93,67.37,62.87ZM71.26,60l-7-8.55L79.63,39l7,8.55ZM88.58,45.73l-6.74-8.29a5.51,5.51,0,0,1,6.74,8.29Z"/><path id="ba9ae47e-059e-44a0-b6b8-10f87cea9abc" data-name="Trazado 447" d="M41.45,56.44a1.36,1.36,0,0,0,0,2.71h3.4a1.36,1.36,0,0,0,0-2.71H41.45Z"/><path id="a466d3f0-11d1-42ad-9380-15efb8ae9169" data-name="Trazado 448" d="M10.64,57.79A1.36,1.36,0,0,0,12,59.15H42.26c.75,0,0-.69,0-1.44s1-1.27.22-1.27H12A1.35,1.35,0,0,0,10.64,57.79Z"/><path id="e9274438-1725-4df1-835b-93772aa0f837" data-name="Trazado 449" d="M12,66.93a1.36,1.36,0,0,0,0,2.71H22.46c.75,0,1.84-.61,1.84-1.36s-1.09-1.35-1.84-1.35Z"/></g></g></g></svg>