<svg style="fill:#07273D" id="eeba5a89-9841-498c-8501-9d71dbb1dacc" data-name="Layer 1" xmlns="http://www.w3.org/2000/svg" viewBox="0 0 111.62 97.2"><g id="e137ac0b-6c95-45f7-bfcc-1c80754c0571" data-name="Grupo 908"><g id="ade69e84-7e37-43bf-a17f-7dc61ca2dbdb" data-name="Grupo 893"><g id="e6f99ad2-bfd2-4c84-95e2-54aa6773b34e" data-name="Grupo 892"><path id="b1968288-b10a-46dc-87e0-407afd28cd3a" data-name="Trazado 434" d="M94.84,24.74H1.6A1.6,1.6,0,0,0,0,26.34V71.09a1.59,1.59,0,0,0,1.59,1.6h0l70.32.17c.89,0,0,0,0-.86s.89-2.26,0-2.26L3.2,69.5V27.94h90v10c0,.89-.29,0,.59,0l-.18-.27c.88,0,1.68,1.16,1.68.27h1.1V26.34A1.6,1.6,0,0,0,94.84,24.74Z"/></g></g><g id="aee50844-c53f-48aa-8492-dee3e1c22807" data-name="Grupo 895"><g id="a3504f6a-43d3-42e6-a9a5-261aaec3aeae" data-name="Grupo 894"><path id="e393cdf6-5975-42bf-af36-46834a11b553" data-name="Trazado 435" d="M89.92,25.45,8.74,6.67A1.6,1.6,0,0,0,6.83,7.88h0L3.1,24.66a1.6,1.6,0,0,0,3.12.7L9.6,10.14l73,16.43a1.34,1.34,0,0,0,.35,0,1.6,1.6,0,0,0,1.6-1.6C84.57,24.26,90.64,25.62,89.92,25.45Z"/></g></g><g id="e11a56e6-ea7c-40a8-973b-e30729283924" data-name="Grupo 897"><g id="a1ae5497-0537-4853-90b9-39996fe8b837" data-name="Grupo 896"><path id="acb9187e-9faa-4701-a548-91e115fc5aca" data-name="Trazado 436" d="M75.38,22.16,23.84.12a1.6,1.6,0,0,0-2.05.77L18.06,8.35a1.59,1.59,0,0,0,.64,2.17,1.61,1.61,0,0,0,2.18-.65l0-.09h0L24,3.65,67.36,21.73c.81.34,4.93,2,5.27,1.22S76.2,22.5,75.38,22.16Z"/></g></g><g id="b31a5401-3fcd-4baf-81be-db643cd67eaa" data-name="Grupo 901"><g id="f54e0931-28ba-4462-8b6f-f3ae41a3f46b" data-name="Grupo 900"><path id="a1320fb4-71ea-4435-9b05-7a18974adf96" data-name="Trazado 438" d="M46.35,32.31A16.41,16.41,0,1,0,62.76,48.72,16.41,16.41,0,0,0,46.35,32.31Zm0,29.83A13.43,13.43,0,1,1,59.78,48.72h0A13.42,13.42,0,0,1,46.35,62.14Z"/></g></g><g id="a85f0ffa-5718-4887-830a-a22149cb837c" data-name="Grupo 903"><g id="f0e2584e-7303-43b4-b0f3-23f365db5cf1" data-name="Grupo 902"><path id="bb374554-074a-4213-bd56-420a9e0ee8e5" data-name="Trazado 439" d="M91.11,37.53c-9.89,0-20.52,2.33-20.52,7.46V89.74c0,5.13,10.63,7.46,20.52,7.46s20.51-2.33,20.51-7.46V45C111.62,39.86,101,37.53,91.11,37.53Zm16.78,52.18c-.28,1-5.87,3.76-16.78,3.76s-16.5-2.72-16.79-3.73V86.81c4,2,10.53,2.93,16.79,2.93s12.81-.94,16.78-2.93Zm0-7.45c-.28,1-5.87,3.75-16.78,3.75s-16.5-2.72-16.79-3.73V79.36c4,2,10.53,2.93,16.79,2.93s12.81-.94,16.78-2.94Zm0-7.46c-.28,1-5.87,3.75-16.78,3.75s-16.5-2.72-16.79-3.73V71.89c4,2,10.53,2.93,16.79,2.93s12.81-.94,16.78-2.93Zm0-7.46c-.28,1-5.87,3.75-16.78,3.75s-16.5-2.72-16.79-3.73V64.43c4,2,10.53,2.93,16.79,2.93s12.81-.94,16.78-2.93Zm0-7.46c-.28,1-5.87,3.76-16.78,3.76s-16.5-2.73-16.79-3.73V57c4,2,10.53,2.93,16.79,2.93S103.92,59,107.89,57Zm0-7.46c-.28,1-5.87,3.76-16.78,3.76s-16.5-2.73-16.79-3.73V49.52c4,2,10.53,2.93,16.79,2.93s12.81-.94,16.78-2.94Zm-16.78-3.7c-10.9,0-16.49-2.72-16.79-3.7h0c.3-1,5.89-3.75,16.79-3.75s16.41,2.67,16.78,3.73c-.37,1-6,3.73-16.78,3.73Z"/></g></g><g id="e35aa7da-33bb-4e6a-8237-4fe58c67cbba" data-name="Grupo 905"><g id="a58f9747-02a5-4f72-b279-8633c9415a84" data-name="Grupo 904"><path id="a38b4929-7019-450d-aa68-e10bb837c4da" data-name="Trazado 440" d="M39.31,60.83H26.58l-6-6.6V43.28l6.66-6.51h12.1a1.45,1.45,0,1,0,0-2.89H26.63a1.46,1.46,0,0,0-1,.41l-7.53,7.34a1.82,1.82,0,0,0-.43,1.18v12a1.43,1.43,0,0,0,.37,1l6.85,7.49a1.43,1.43,0,0,0,1.06.47H39.31a1.45,1.45,0,1,0,0-2.89Z"/></g></g><g id="e924d932-749d-4084-87e0-03cca80f9cc2" data-name="Grupo 907"><g id="ab6c0727-0e9b-4c17-a9d3-b1291bf9fd4a" data-name="Grupo 906"><path id="babbd3f0-76b2-4351-a06c-e62d14c9fdcc" data-name="Trazado 441" d="M47.28,46.85H45.42c-.58,0-.93-.32-.93-.46s.35-.47.93-.47h4.66a1.87,1.87,0,0,0,0-3.73H48.22a1.87,1.87,0,0,0-3.73,0v.09a4.33,4.33,0,0,0-3.73,4.1,4.44,4.44,0,0,0,4.66,4.2h1.86c.58,0,.94.32.94.47s-.36.46-.94.46H42.62a1.87,1.87,0,0,0,0,3.73h1.87a1.87,1.87,0,0,0,3.73,0v-.08A4.35,4.35,0,0,0,52,51.06,4.46,4.46,0,0,0,47.28,46.85Z"/></g></g></g></svg>