<svg style="fill:#07273D" id="bdbaf0d7-91d4-47d0-88e0-0c2d4ac10353" data-name="Layer 1" xmlns="http://www.w3.org/2000/svg" viewBox="0 0 97.87 97.86"><g id="a003674b-b015-45b3-a609-71ff9ca9dd4f" data-name="Grupo 891"><path id="aa7ca5cb-a876-49b7-949d-10a923935552" data-name="Trazado 425" d="M14.35,26.86H17V49.22a2.68,2.68,0,0,0,2.67,2.68h3.06a2.69,2.69,0,0,0,2.68-2.68V26.86h2.66A1.83,1.83,0,0,0,29.91,25a1.74,1.74,0,0,0-.27-.94L22.77,12.79a1.8,1.8,0,0,0-2.49-.6,1.75,1.75,0,0,0-.61.6h0L12.8,24.1a1.82,1.82,0,0,0,.61,2.49A2,2,0,0,0,14.35,26.86Zm7.77-12.58Zm-.9,1.48,5,8.23h-1a2.68,2.68,0,0,0-2.67,2.68V49H19.88V26.67A2.67,2.67,0,0,0,17.21,24h-1Z"/><path id="b9ce5eb1-f874-44f2-9d7e-c4c6b9a1a35f" data-name="Trazado 426" d="M8.41,51.89h3.06a2.67,2.67,0,0,0,2.68-2.67V35.27a2.68,2.68,0,0,0-2.68-2.68H8.41a2.68,2.68,0,0,0-2.67,2.68V49.22A2.67,2.67,0,0,0,8.41,51.89ZM8.6,35.46h2.68V49H8.61Z"/><path id="ea20fb79-dc69-40f9-b8ec-71e942b12215" data-name="Trazado 427" d="M95.48,17,80.86,2.38A8,8,0,0,0,75.12,0H37a4.3,4.3,0,0,0-4.3,4.3V54.86H9.08A3.35,3.35,0,0,0,5.73,58.2v2.87c0,.16,0,.32,0,.48H3.35A3.34,3.34,0,0,0,0,64.89v2.87A3.35,3.35,0,0,0,3.35,71.1H5.77c0,.16,0,.32,0,.48v2.87c0,.16,0,.31,0,.47H3.35A3.36,3.36,0,0,0,0,78.27v2.87a3.35,3.35,0,0,0,3.35,3.34H5.77c0,.16,0,.32,0,.48v2.87c0,.16,0,.32,0,.48H3.35A3.34,3.34,0,0,0,0,91.65v2.87a3.35,3.35,0,0,0,3.35,3.34H93.56a4.29,4.29,0,0,0,4.3-4.3V39.09A1.43,1.43,0,0,0,95,39V93.56A1.43,1.43,0,0,1,93.56,95H44.31a3.87,3.87,0,0,0,0-.48V91.65a3.87,3.87,0,0,0,0-.48h2.42a3.35,3.35,0,0,0,3.35-3.34V85a3.34,3.34,0,0,0-3.35-3.34H44.31a3.87,3.87,0,0,0,0-.48V78.27a3.87,3.87,0,0,0,0-.48h2.42a3.35,3.35,0,0,0,3.35-3.34V71.58a3.35,3.35,0,0,0-3.35-3.34H44.31a3.87,3.87,0,0,0,0-.48V64.89a3.87,3.87,0,0,0,0-.48h2.42a3.34,3.34,0,0,0,3.35-3.34V58.2a3.34,3.34,0,0,0-3.35-3.34H35.55V4.3A1.43,1.43,0,0,1,37,2.87H75A1.44,1.44,0,0,1,76.46,4.3V8.6H43.67A2.39,2.39,0,0,0,41.29,11V35.27a2.39,2.39,0,0,0,2.38,2.38H86.88a2.39,2.39,0,0,0,2.38-2.38V21.41h4.3A1.43,1.43,0,0,1,95,22.84v16.5c0,.79.64-.25,1.43-.25s1.44,1,1.44.25V22.75A8.1,8.1,0,0,0,95.48,17ZM47.21,85v2.87a.48.48,0,0,1-.48.48H19.59a1.43,1.43,0,1,0-.07,2.86H41a.49.49,0,0,1,.48.48v2.87A.48.48,0,0,1,41,95H3.35a.47.47,0,0,1-.48-.48V91.65a.48.48,0,0,1,.48-.48H20.24c.8,0,1-.64,1-1.43a1.36,1.36,0,0,0-1.31-1.43H9.08a.49.49,0,0,1-.48-.48V85a.49.49,0,0,1,.48-.48H46.73A.48.48,0,0,1,47.21,85Zm-5.73-6.69v2.87a.49.49,0,0,1-.48.48H3.35a.48.48,0,0,1-.48-.48V78.27a.48.48,0,0,1,.48-.48H41A.49.49,0,0,1,41.48,78.27Zm5.73-6.69v2.87a.48.48,0,0,1-.48.48H9.08a.49.49,0,0,1-.48-.48V71.58a.49.49,0,0,1,.48-.48H46.73a.48.48,0,0,1,.48.48Zm-5.73-6.69v2.87a.49.49,0,0,1-.48.48H3.35a.48.48,0,0,1-.48-.48V64.89a.48.48,0,0,1,.48-.48H41a.49.49,0,0,1,.48.48Zm5.73-6.69v2.87a.48.48,0,0,1-.48.48H9.08a.49.49,0,0,1-.48-.48h0V58.2a.49.49,0,0,1,.48-.48H46.73a.48.48,0,0,1,.48.48ZM93,18.54H80.76a1.43,1.43,0,0,1-1.44-1.43V4.89ZM86.39,34.79H44.15V11.47h32.3v5.64a4.32,4.32,0,0,0,4.3,4.3h5.64Z"/><path id="fa5d8221-5989-4889-bb44-313960f88573" data-name="Trazado 428" d="M66.33,89.26h21.5a1.43,1.43,0,0,0,0-2.86H66.33a1.43,1.43,0,1,0-.08,2.86Z"/><path id="aa139ddf-0cc6-46ee-a85c-a97f4d052e95" data-name="Trazado 429" d="M65.62,83.17a1.43,1.43,0,0,0,2-.46l2.56-4.14,1.92,3.6a2.39,2.39,0,0,0,3.23,1,2.33,2.33,0,0,0,.91-.85l2.31-3.73,1.94,3.64a2.38,2.38,0,0,0,2,1.26h.11a2.38,2.38,0,0,0,2-1.09l4.35-6.66a1.44,1.44,0,0,0-2.34-1.67l-.06.1-3.91,6-2-3.66a2.39,2.39,0,0,0-3.23-1,2.33,2.33,0,0,0-.91.85l-2.31,3.73-1.92-3.6a2.39,2.39,0,0,0-3.23-1,2.32,2.32,0,0,0-.91.85l-3,4.85a1.43,1.43,0,0,0,.47,2Z"/><path id="aaad1c22-a5a9-49df-b08e-a4626cab1da2" data-name="Trazado 430" d="M87.83,60.59H66.42a1.44,1.44,0,1,0-.07,2.87H87.83a1.44,1.44,0,1,0,.07-2.87Z"/><path id="e1091e09-695e-44de-aa13-ca5b022f20e1" data-name="Trazado 431" d="M87.83,54.86H57.44a1.43,1.43,0,0,0,0,2.86H87.83a1.43,1.43,0,0,0,0-2.86Z"/><path id="fcfada7d-ea43-4eef-931b-1a37dc1083e7" data-name="Trazado 432" d="M87.83,49.12H42.72A1.44,1.44,0,0,0,42.64,52H87.83a1.44,1.44,0,0,0,0-2.87Z"/><path id="bc439c43-fc0e-4d69-a4d6-08f1874516d7" data-name="Trazado 433" d="M87.83,43.39H42.72a1.44,1.44,0,0,0,0,2.87H87.83a1.44,1.44,0,0,0,0-2.87Z"/></g></svg>