<svg style="fill:#07273D" id="b22985be-ea9e-48b8-8e39-2519fd760c50" data-name="Layer 1" xmlns="http://www.w3.org/2000/svg" viewBox="0 0 99.87 99.86"><g id="ad2745fc-f591-484d-a237-51f1a010ccfc" data-name="Grupo 889"><path id="adf2e4cc-1810-4997-aea4-ffa9151e12fe" data-name="Trazado 417" d="M65.15,75H34.72a2,2,0,1,0,0,3.9H65.15a2,2,0,1,0,0-3.9Z"/><path id="b3576425-1c12-46ee-b9ab-82ee79e66500" data-name="Trazado 418" d="M65.15,65H34.72a2,2,0,0,0,0,3.9H65.15a2,2,0,1,0,0-3.9Z"/><path id="b0ec655a-94f5-41ca-af52-ef8e9bde46cf" data-name="Trazado 419" d="M65.15,55H34.72a1.95,1.95,0,1,0,0,3.9H65.15a2,2,0,0,0,0-3.9Z"/><path id="fd1fb35e-701c-4952-8d12-6dcb41d1a1cd" data-name="Trazado 420" d="M65.15,44.93H34.72a2,2,0,1,0,0,3.9H65.15a2,2,0,1,0,0-3.9Z"/><path id="f7f3c433-0a23-40f0-8523-464b43ead6b2" data-name="Trazado 421" d="M65.15,34.9H34.72a2,2,0,1,0,0,3.9H65.15a2,2,0,1,0,0-3.9Z"/><path id="ef8c0b75-a38d-4916-a6fc-1dff546f9e2c" data-name="Trazado 422" d="M65.15,24.87H34.72a2,2,0,1,0,0,3.9H65.15a2,2,0,0,0,0-3.9Z"/><path id="a952d530-8379-44e8-a0ce-c216768a5111" data-name="Trazado 423" d="M57.74,85H42.14a1.95,1.95,0,1,0,0,3.9h15.6a2,2,0,0,0,0-3.9Z"/><path id="b2a161d0-0a44-482d-8e1c-31933715e673" data-name="Trazado 424" d="M85.44,54.49a14.36,14.36,0,0,0-5.85,1.24V16.79a2,2,0,0,0-2-1.95H74.51V7.43a2,2,0,0,0-2-1.95H51.89V2A2,2,0,0,0,48,2V5.48H27.31a2,2,0,0,0-1.95,1.95h0v7.41H22.24a2,2,0,0,0-1.95,1.95h0V76.67a12.13,12.13,0,0,0-13,5.08A9.15,9.15,0,0,0,9.14,99.86h68.5a2,2,0,0,0,2-2V88.09a14.63,14.63,0,0,0,3.9,1.11v8.71a2,2,0,0,0,3.9,0V89.2A14.46,14.46,0,0,0,99.87,74.9v-6A14.45,14.45,0,0,0,85.44,54.49ZM9.14,96a5.25,5.25,0,0,1-.47-10.48,2,2,0,0,0,1.52-1,8.25,8.25,0,0,1,14.44,0,2,2,0,0,0,1.52,1A5.25,5.25,0,0,1,25.71,96Zm66.54,0H33.16a9.14,9.14,0,0,0-5.63-14.21,12.14,12.14,0,0,0-3.34-3.36V18.74H59.53c1.08,0,1.49,0,1.49-1.09s-1.23-2.81-2.3-2.81H29.26V9.38H70.61v5.46H58.71a1.95,1.95,0,0,0,0,3.9h17V58.29A14.38,14.38,0,0,0,71,68.92v6a14.39,14.39,0,0,0,4.68,10.63V96ZM96,74.9a10.55,10.55,0,0,1-8.58,10.35V80.11L91.5,76a2,2,0,0,0-2.76-2.76l-1.35,1.35V68.85a1.95,1.95,0,0,0-3.9,0V71l-1.35-1.35a2,2,0,0,0-2.76,2.76l4.11,4.11v8.77A10.55,10.55,0,0,1,74.91,74.9v-6a10.53,10.53,0,0,1,21.06,0Z"/></g></svg>
