<svg style="fill: #FFFFFF;" id="af5860d6-6398-4686-b1db-306e01188747" data-name="Layer 1" xmlns="http://www.w3.org/2000/svg" viewBox="0 0 32.55 44.21"><g id="bed59f01-295c-4f55-a837-44c166104439" data-name="Grupo 747"><path id="f368a3f0-feb5-429d-9cf4-a827ce0a3867" data-name="Trazado 211" d="M16.28,0A16.29,16.29,0,0,0,0,16.28a15.86,15.86,0,0,0,1.42,6.64c4.07,8.9,11.87,18.31,14.17,21a.91.91,0,0,0,1.28.1l.09-.1c2.3-2.66,10.1-12.06,14.17-21a15.86,15.86,0,0,0,1.42-6.64A16.29,16.29,0,0,0,16.28,0Zm0,24.73a8.46,8.46,0,1,1,8.45-8.46h0A8.47,8.47,0,0,1,16.28,24.73Z"/></g></svg>
